<svg width="176" height="176" viewBox="0 0 176 176" fill="none" xmlns="http://www.w3.org/2000/svg">
<path fill-rule="evenodd" clip-rule="evenodd" d="M175.972 168.331V126.326L175.998 126.3C175.998 122.204 175.989 118.108 175.981 114.011C175.963 105.818 175.946 97.6256 175.998 89.4329C176.101 72.8838 172.378 57.2642 163.666 43.1678C146.242 14.8975 120.622 0.129866 87.4532 0.000777779C61.6266 -0.102493 39.652 10.0438 22.4342 29.4328C5.06138 48.9767 -2.33242 72.1093 0.640608 98.0301C3.56194 123.848 15.8677 144.631 37.1184 159.863C52.785 171.042 70.3905 176.67 89.7282 175.896C102.654 175.354 113.435 163.994 113.745 151.085C113.874 145.251 113.824 139.4 113.774 133.56C113.764 132.396 113.754 131.232 113.745 130.07C113.719 126.404 111.212 123.899 107.566 123.848C105.993 123.826 104.424 123.832 102.856 123.838C100.766 123.847 98.6767 123.855 96.5791 123.796C95.315 123.763 94.044 123.755 92.7714 123.748C89.1251 123.726 85.4661 123.705 81.9207 123.073C62.4021 119.588 50.2515 102.548 52.8884 82.8752C55.9132 60.3623 79.2579 46.3691 100.509 54.3726C114.236 59.5361 123.569 72.5482 123.724 87.1867C123.813 94.2534 123.8 101.32 123.787 108.387C123.778 113.687 123.768 118.987 123.802 124.287C123.813 126.318 123.816 128.35 123.818 130.381C123.829 137.926 123.839 145.464 124.267 152.97C124.939 164.588 136.107 175.251 147.741 175.767C152.308 175.973 156.876 175.973 161.443 175.973C163.726 175.973 166.01 175.973 168.294 175.999C173.619 176.051 175.972 173.727 175.972 168.331ZM113.901 107.324V97.7453H113.875C113.875 96.5998 113.889 95.4543 113.904 94.3097C113.932 92.0234 113.961 89.7409 113.875 87.47C113.487 76.8073 106.197 67.4613 96.166 64.0018C87.066 60.8778 74.6051 63.6145 67.1596 73.1928C59.3263 83.2617 60.9033 99.7333 70.7789 107.814C75.4841 111.687 80.7063 114.217 86.885 114.372C93.5808 114.553 100.277 114.707 106.972 114.604C111.652 114.527 113.901 111.945 113.901 107.324Z" fill="#0C567C"/>
</svg>
