<svg width="107" height="24" viewBox="0 0 107 24" fill="none" xmlns="http://www.w3.org/2000/svg">
<path fill-rule="evenodd" clip-rule="evenodd" d="M62.445 11.8283V1.38846C62.445 0.69371 62.7179 0.259491 63.239 0.0733968C63.9213 -0.174729 64.6595 0.228475 64.8146 0.948039C64.858 1.15895 64.8642 1.38846 64.8642 1.60557V22.1007C64.8642 23.0002 64.5541 23.4716 63.8841 23.6081C63.1025 23.7694 62.4574 23.2607 62.4388 22.4357C62.4264 21.8235 62.4305 21.2085 62.4347 20.5944V20.5943C62.4367 20.2876 62.4388 19.9811 62.4388 19.6753V11.8283H62.445ZM33.4081 8.19298C31.9865 8.58239 30.8974 9.44607 29.9507 10.7349C28.9467 9.1183 27.6029 8.21109 25.7535 8.0379C23.8553 7.86421 22.4782 8.68302 21.312 10.2214C21.3032 10.0842 21.2982 9.9675 21.2939 9.8643V9.86426V9.86424V9.86421C21.2861 9.67821 21.2801 9.53601 21.2562 9.39638C21.1631 8.81329 20.6917 8.41009 20.1086 8.39768C19.5131 8.37907 19.023 8.73885 18.8866 9.30954C18.8494 9.46462 18.8432 9.6321 18.8432 9.79959V22.2307C18.8432 22.3361 18.8432 22.4478 18.8556 22.5594C18.9424 23.1922 19.4325 23.6264 20.059 23.6264C20.6855 23.6264 21.1755 23.1922 21.2562 22.5532C21.2748 22.4045 21.2725 22.2522 21.2701 22.099V22.099V22.0989V22.0988V22.0987C21.2694 22.0476 21.2686 21.9965 21.2686 21.9453C21.2686 21.1103 21.2665 20.2759 21.2645 19.4418L21.2644 19.4402V19.4401V19.44V19.4398V19.4397V19.4396C21.2603 17.7712 21.2562 16.1036 21.2686 14.4333C21.2872 12.4421 22.5836 10.8417 24.4074 10.4943C26.5909 10.0787 28.6813 11.7846 28.6937 14.0053C28.702 15.7502 28.6993 17.4924 28.6965 19.2355C28.6951 20.1074 28.6937 20.9795 28.6937 21.8523C28.6937 21.9144 28.6923 21.9759 28.691 22.0371V22.0372V22.0372V22.0373V22.0374V22.0375C28.6882 22.1594 28.6855 22.2805 28.6937 22.4044C28.731 23.1363 29.2272 23.6512 29.8971 23.6574C30.5857 23.6636 31.113 23.1301 31.113 22.3671V14.1356C31.113 12.3491 32.4342 10.8169 34.2207 10.5067C35.9948 10.2028 37.6138 11.1519 38.1907 12.9136C38.3768 13.478 38.4575 14.0984 38.4637 14.7001C38.4862 16.4414 38.4825 18.1828 38.4789 19.9242C38.4775 20.5772 38.4761 21.2303 38.4761 21.8833C38.4761 21.9391 38.4754 21.9941 38.4747 22.049V22.0492V22.0494V22.0496V22.0499C38.4733 22.1594 38.472 22.2681 38.4761 22.3795C38.5071 23.1425 39.0158 23.676 39.6981 23.676C40.3804 23.6698 40.9015 23.1301 40.9015 22.3671C40.9139 19.8239 40.9139 17.2868 40.9015 14.7435V14.7434C40.9015 14.1355 40.9015 13.5215 40.7837 12.9322C40.0765 9.34676 36.8323 7.26871 33.4081 8.19298ZM77.2954 10.2281C77.346 10.1888 77.3852 10.1634 77.4152 10.144C77.4513 10.1206 77.4742 10.1058 77.4877 10.0855C78.8524 8.13768 80.7816 7.79031 82.9279 8.26795C85.8185 8.91928 87.847 11.4377 87.8904 14.4028C87.919 16.4107 87.9109 18.4223 87.9029 20.4347V20.4352V20.4358V20.4363V20.4369V20.4375C87.9004 21.0415 87.898 21.6457 87.8966 22.2498C87.8966 23.0872 87.4251 23.6021 86.6994 23.6083C85.9488 23.6083 85.4774 23.0872 85.4712 22.2188C85.4712 21.3646 85.4718 20.5111 85.4725 19.6578V19.6571V19.6565V19.6558V19.6551V19.6544C85.4739 17.9497 85.4753 16.2459 85.4712 14.5393C85.4588 12.4551 83.9204 10.6437 82.016 10.4328C79.8511 10.1971 77.9468 11.5556 77.4877 13.6833C77.4192 14.009 77.4137 14.3558 77.4085 14.6946L77.4071 14.7812C77.3969 15.3665 77.3994 15.9525 77.4019 16.5382V16.5383V16.5385V16.5386V16.5387V16.5388C77.407 17.7408 77.4121 18.9419 77.3078 20.1345C77.1155 22.4049 75.0251 24.1108 72.8168 23.9929C70.4782 23.8688 68.5862 22.0203 68.5614 19.7313C68.5247 16.8968 68.5368 14.0578 68.5489 11.2219V11.2215V11.2211V11.2208V11.2204V11.22C68.5511 10.7053 68.5533 10.1906 68.5552 9.67606C68.5552 8.90067 69.0701 8.38581 69.7772 8.39821C70.4658 8.40442 70.9124 8.89446 70.9186 9.67606C70.9279 11.2951 70.9326 12.9156 70.9372 14.5362C70.9419 16.1568 70.9465 17.7774 70.9558 19.3964C70.962 20.6308 71.694 21.4868 72.7858 21.5613C74.0264 21.6481 74.9258 20.7425 74.932 19.3716C74.9362 17.3199 74.9348 15.2683 74.9334 13.2185V13.2171V13.2158V13.2144V13.213V13.2116C74.9327 12.1897 74.932 11.1683 74.932 10.1475C74.932 10.0961 74.9316 10.0452 74.9313 9.99441V9.99416C74.9301 9.84265 74.9289 9.69286 74.9382 9.53959C74.9879 8.90687 75.4717 8.42923 76.0796 8.41062C76.7061 8.39201 77.2458 8.87586 77.3016 9.52098C77.3137 9.65727 77.3101 9.79356 77.3061 9.94825V9.94831C77.304 10.033 77.3016 10.1232 77.3016 10.2219L77.2954 10.2281ZM13.1486 10.7709C13.1485 10.6397 13.1472 10.5084 13.1459 10.3771C13.1431 10.1001 13.1404 9.82299 13.1486 9.54592C13.1735 8.85117 13.6759 8.34871 14.3334 8.34251C14.991 8.34251 15.5182 8.83876 15.5244 9.53351C15.5306 13.7641 15.5368 18.0008 15.5244 22.2313C15.5244 23.0998 15.0096 23.6208 14.2714 23.6084C13.558 23.5898 13.1114 23.075 13.099 22.2251C13.0949 22.0213 13.0962 21.8176 13.0976 21.6015C13.0983 21.4887 13.099 21.3725 13.099 21.2512C13.0652 21.266 13.0358 21.2772 13.0106 21.2867C12.9619 21.3053 12.9293 21.3176 12.9129 21.3381C11.8708 22.8951 10.3138 23.5278 8.54591 23.6705C4.20992 24.0302 0.655522 21.214 0.0786301 16.8904C-0.312167 13.9564 0.760975 11.5061 3.13678 9.74442C5.45055 8.03236 8.00004 7.66637 10.6922 8.83876C11.6602 9.25804 12.4628 9.91022 13.1486 10.7709ZM7.85116 10.5384C10.7666 10.5818 13.1486 13.0569 13.1052 15.9848C13.0618 18.9561 10.5867 21.3877 7.68367 21.3257C4.63173 21.2574 2.29935 18.8072 2.34898 15.7304C2.3986 12.8398 4.88606 10.495 7.85116 10.5384ZM106.568 16.0153C106.562 20.5374 102.976 24.0794 98.3116 23.9987C93.7771 23.9243 90.4832 20.1342 90.5329 15.9409C90.5825 11.5614 94.1617 7.98843 98.5659 7.98843C103.001 7.98843 106.574 11.5738 106.568 16.0091V16.0153ZM93.0141 16.0091C93.0174 19.0891 95.4912 21.5485 98.5721 21.5299C101.63 21.5175 104.056 19.0548 104.056 15.9843C104.056 12.9075 101.624 10.4697 98.5535 10.4635C95.4643 10.4511 93.0079 12.9137 93.0141 16.0091ZM51.3849 23.9987C56.0496 24.0794 59.6164 20.5436 59.6226 16.0153C59.6288 11.5614 56.0806 7.98843 51.6392 7.98843C47.1978 7.98843 43.662 11.5552 43.6123 15.9967C43.5689 20.0659 46.7883 23.9181 51.3849 23.9987ZM51.6206 10.4635C54.716 10.4759 57.1476 12.9261 57.1352 16.0277C57.1228 19.0796 54.6601 21.5299 51.602 21.5299C48.519 21.5299 46.0874 19.0672 46.0936 15.9595C46.106 12.8889 48.5562 10.4511 51.6206 10.4635ZM71.1975 4.98629C71.1665 4.14267 70.5028 3.50995 69.6467 3.52235C68.7783 3.53476 68.158 4.17368 68.158 5.03592C68.1642 5.91056 68.8465 6.5867 69.7026 6.56809C70.5772 6.54948 71.2285 5.86094 71.1975 4.98629Z" fill="#0C567C"/>
</svg>
